<svg xmlns="http://www.w3.org/2000/svg" width="250" height="60" viewBox="0 0 250 60">
    <path fill="#E20714" fill-rule="evenodd" d="M0 0v19.588h6.859l4.215 7.087 4.215-7.087h6.857V39.76H15.6v-10l-4.526 7.173h-.112l-4.523-7.172v9.999H0v19.587h59.334V39.76H43.517V19.588h6.576v14.407h9.241V0H0zm24.407 19.588h16.844v5.533h-10.38v2.042h9.607v4.872h-9.607v2.188h10.38v5.537H24.407V19.588zm46.83 17.628h7.738v2.01H73.48v2.08h4.834v2.009H73.48v2.153h5.568v2.01h-7.812V37.215zm9.745 5.865v-5.864h2.257v5.804c0 1.67.836 2.537 2.214 2.537 1.375 0 2.211-.837 2.211-2.462v-5.88h2.257v5.792c0 3.105-1.744 4.63-4.499 4.63-2.756 0-4.44-1.539-4.44-4.557zm11.326-5.864h4.69c1.305 0 2.315.368 2.989 1.04.573.573.88 1.38.88 2.346v.029c0 1.655-.894 2.697-2.2 3.18l2.508 3.665h-2.638l-2.198-3.284h-1.773v3.284h-2.258v-10.26zm10.228 5.158v-.027c0-2.919 2.3-5.306 5.465-5.306 3.167 0 5.436 2.358 5.436 5.277v.029c0 2.917-2.3 5.304-5.465 5.304-3.163 0-5.436-2.359-5.436-5.277zm12.996-5.159h4.191c2.446 0 3.927 1.452 3.927 3.548v.03c0 2.373-1.846 3.607-4.146 3.607h-1.716v3.075h-2.256v-10.26zm14.638-3.107l1.92.835-1.992 1.468h-1.7l1.772-2.303zm-4.762 3.108h7.737v2.009h-5.496v2.08h4.836v2.009h-4.836v2.153h5.569v2.01h-7.81V37.217zm9.906 0h7.734v2.009h-5.494v2.08h4.835v2.009h-4.835v2.153h5.57v2.01h-7.81V37.215zm9.902 0h2.081l4.808 6.317v-6.318h2.228v10.261h-1.92l-4.969-6.523v6.523h-2.228v-10.26zm11.665 0h2.08l4.808 6.317v-6.318h2.227v10.261h-1.921l-4.967-6.523v6.523h-2.227v-10.26zm11.664 0h7.737v2.009h-5.498v2.08h4.838v2.009h-4.838v2.153h5.573v2.01h-7.812V37.215zm14.388 0h4c3.224 0 5.45 2.212 5.45 5.102v.029c0 2.887-2.226 5.13-5.45 5.13h-4V37.217zm11.547 0h7.736v2.009h-5.498v2.08h4.837v2.009h-4.837v2.153h5.572v2.01h-7.81V37.215zm14.387 0h2.257v8.206h5.115v2.054h-7.372v-10.26zm9.261 10.26v-10.26h2.256v10.26h-2.256zm4.907-10.26h2.257v8.206h5.115v2.054h-7.372v-10.26zm9.158 0h2.257v8.206h5.114v2.054h-7.37v-10.26zm9.158 0h7.773v2.009h-5.53v2.08h4.836v2.009h-4.836v2.153h5.628v2.01h-7.871V37.215zM71.21 11.872h5.664l4.612 7.49 4.614-7.49h5.665v19.345h-5.332v-11.11l-4.947 7.571h-.108l-4.919-7.542v11.08h-5.249V11.874zm32.77-5.802l5 1.52-4.088 2.956h-3.895l2.983-4.476zm-8.76 5.802h15.553v4.532h-10.249v2.957h9.284v4.228h-9.284v3.068h10.388v4.56H95.22V11.873zm23.21 4.698h-5.774v-4.698h16.935v4.698h-5.801v14.647h-5.36V16.57zm13.54-4.698h9.144c2.956 0 5.001.774 6.3 2.072 1.133 1.132 1.71 2.598 1.71 4.504v.056c0 2.986-1.573 4.947-3.977 5.97l4.614 6.743H143.6l-3.895-5.86h-2.377v5.86h-5.358V11.873zm19.256 9.728v-.056c0-5.553 4.478-10.058 10.444-10.058 5.967 0 10.388 4.449 10.388 10.004v.054c0 5.556-4.475 10.059-10.444 10.059-5.967 0-10.388-4.45-10.388-10.003zm23.624-9.728h8.317c4.86 0 8.01 2.515 8.01 6.77v.056c0 4.586-3.508 6.991-8.288 6.991h-2.678v5.528h-5.36V11.873zm17.989 9.728v-.056c0-5.553 4.475-10.058 10.442-10.058 5.968 0 10.389 4.449 10.389 10.004v.054c0 5.556-4.477 10.059-10.444 10.059-5.968 0-10.387-4.45-10.387-10.003zm23.621-9.728h5.361V26.52h9.366v4.699h-14.727V11.873zm17.077 0h15.554v4.532h-10.249v2.958h9.283v4.227h-9.283v3.068h10.375v4.56h-15.68V11.873zm-122.46 30.502v-.027c0-1.76-1.291-3.226-3.106-3.226s-3.077 1.436-3.077 3.197v.029c0 1.759 1.289 3.223 3.106 3.223 1.818 0 3.078-1.435 3.078-3.196zm8.5.016c1.127 0 1.787-.675 1.787-1.554v-.029c0-1.011-.704-1.554-1.832-1.554h-1.745v3.137h1.79zm63.202-20.9c1.88 0 3.066-1.023 3.066-2.543v-.055c0-1.659-1.186-2.516-3.092-2.516h-2.542v5.113h2.568zm2.411 17.763v6.186h1.741c1.848 0 3.092-1.247 3.092-3.065v-.027c0-1.82-1.244-3.094-3.092-3.094h-1.74zm-18.63-17.653v-.056c0-2.819-1.99-5.221-4.946-5.221-2.954 0-4.917 2.374-4.917 5.167v.054c0 2.79 2.017 5.224 4.973 5.224 2.929 0 4.89-2.378 4.89-5.168zm41.612 0v-.056c0-2.819-1.99-5.221-4.946-5.221-2.956 0-4.917 2.374-4.917 5.167v.054c0 2.79 2.017 5.224 4.972 5.224 2.928 0 4.89-2.378 4.89-5.168zM96.85 42.2c1.1 0 1.729-.586 1.729-1.451v-.03c0-.968-.672-1.466-1.772-1.466h-2.242v2.947h2.285zm44.043-21.043c1.794 0 2.874-.884 2.874-2.293v-.056c0-1.547-1.135-2.32-2.903-2.32h-3.537v4.669h3.566z"/>
</svg>
