<?xml version="1.0" encoding="utf-8"?>
<!-- Generator: Adobe Illustrator 21.1.0, SVG Export Plug-In . SVG Version: 6.00 Build 0)  -->
<svg version="1.1" id="Calque_1" xmlns="http://www.w3.org/2000/svg" xmlns:xlink="http://www.w3.org/1999/xlink" x="0px" y="0px"
	 viewBox="0 0 607 132" style="enable-background:new 0 0 607 132;" xml:space="preserve">
<style type="text/css">
	.st0{fill:#2070A1;}
	.st1{fill:#0A98CF;}
	.st2{fill:#34B2E3;}
	.st3{fill:#68CBF2;}
	.st4{fill:#7ABED3;}
</style>
<g>
	<path class="st0" d="M89.4,64.5c0,21.9,7.9,42.5,22.5,58.6c2.2,2.5,6.1,2.6,8.5,0.2l8.9-8.9c2.2-2.2,2.3-5.7,0.3-8
		c-4.2-4.8-7.7-10.1-10.3-16c-3.7-8.2-5.5-16.9-5.5-25.9c0-9,1.9-17.7,5.5-25.8c0,0,0-0.1,0-0.1c1-2.3-1.5-4.5-3.6-3.3
		c-6.5,3.8-13.4,6.8-20.7,8.9c-2.2,0.6-3.8,2.4-4.2,4.6C89.9,53.9,89.4,59.2,89.4,64.5z"/>
	<path class="st1" d="M44.4,113.5c8.2-3.7,16.9-5.5,25.9-5.5c9,0,17.7,1.9,25.8,5.5c0,0,0.1,0,0.1,0c2.3,1,4.5-1.5,3.3-3.6
		c-3.8-6.5-6.8-13.4-8.9-20.7c-0.6-2.2-2.4-3.8-4.6-4.2c-5.2-0.9-10.4-1.4-15.7-1.4c-21.9,0-42.5,7.9-58.6,22.5
		c-2.5,2.2-2.6,6.1-0.2,8.5l8.9,8.9c2.2,2.2,5.7,2.3,8,0.3C33.2,119.6,38.6,116.1,44.4,113.5z"/>
	<path class="st2" d="M51.1,64.5c0-21.9-7.9-42.5-22.5-58.6c-2.2-2.5-6.1-2.6-8.5-0.2l-8.9,8.9c-2.2,2.2-2.3,5.7-0.3,8
		c4.2,4.8,7.7,10.1,10.3,16c3.7,8.2,5.5,16.9,5.5,25.9c0,9-1.9,17.7-5.5,25.8c0,0,0,0.1,0,0.1c-1,2.3,1.5,4.5,3.6,3.3
		c6.5-3.8,13.4-6.8,20.7-8.9c2.2-0.6,3.8-2.4,4.2-4.6C50.6,75.1,51.1,69.8,51.1,64.5z"/>
	<path class="st3" d="M70.2,45.4c21.9,0,42.5-7.9,58.6-22.5c2.5-2.2,2.6-6.1,0.2-8.5l-8.9-8.9c-2.2-2.2-5.7-2.3-8-0.3
		c-4.8,4.2-10.1,7.7-16,10.3C87.9,19.2,79.2,21,70.2,21c-9,0-17.7-1.9-25.8-5.5c0,0-0.1,0-0.1,0c-2.3-1-4.5,1.5-3.3,3.6
		c3.8,6.5,6.8,13.4,8.9,20.7c0.6,2.2,2.4,3.8,4.6,4.2C59.7,44.9,65,45.4,70.2,45.4z"/>
</g>
<g>
	<path d="M166.4,24.1v30.5h17.3v7.8h-26.1V24.1H166.4z"/>
	<path d="M216.6,24.1v7.8h-19.7v6.9H211v7.6h-14.1v8.4h19.7v7.8H188V24.1H216.6z"/>
	<path d="M271.3,62.4h-10.9c-4.7-8.7-9.8-17.5-15.1-26.2v26.2h-8.6V24.1h11.5c4.9,8.1,9.8,16.7,14.4,25.2V24.1h8.8V62.4z"/>
	<path d="M303.8,24.1h8.9v27.6c0,9.2-6.4,11.5-16.4,11.5c-10.1,0-16.4-2.3-16.4-11.5V24.1h9v26c0,3.6,2,4.9,7.5,4.9
		c5.5,0,7.5-1.2,7.5-4.9V24.1z"/>
	<path d="M352.6,24.1h11.3v38.3h-8.6V36.5c-2.9,6.4-6.9,16.2-9.5,22.7h-7c-2.4-6.4-6.2-16.6-9-22.7v25.9h-8.6V24.1h11.9
		c3.2,6.4,7,15.2,9.8,22.4C345.8,39.3,349.6,30.4,352.6,24.1z"/>
	<path d="M401.5,24.1v7.8h-19.7v6.9h14.1v7.6h-14.1v8.4h19.7v7.8H373V24.1H401.5z M381.9,21.3l7-7.1h8.7l-8.6,7.1H381.9z"/>
	<path d="M442.2,62.4h-11c-5.9-10.4-8.7-13.6-11.1-13.6h-4v13.6h-8.9V24.1h21.4c7.9,0,10.5,4.9,10.5,11.2c0,5.5-2.3,10.3-9.6,10.7
		C432.3,46.9,435.1,50.4,442.2,62.4z M416.2,41.5h9.8c1.6,0,3.3-1.2,3.3-4.8c0-3.5-1.2-5-3.2-5h-10V41.5z"/>
	<path d="M455.9,24.1v38.3h-8.9V24.1H455.9z"/>
	<path d="M500.6,42.8c0,11.5-3.5,16.7-9.9,18.1c2.3,0.7,5.9,4.3,11.3,12h-10.2c-4-6.5-7.5-9.5-9.8-9.8c-12.3-0.1-18.6-4.6-18.6-20.3
		c0-15.6,6.3-19.7,18.6-19.7C494.2,23.1,500.6,27.3,500.6,42.8z M491.1,42.9c0-10.4-1.4-11.7-9.2-11.7s-9.2,1.3-9.2,11.7
		c0,10.6,1.4,12.2,9.2,12.2S491.1,53.6,491.1,42.9z"/>
	<path d="M531.5,24.1h8.9v27.6c0,9.2-6.4,11.5-16.4,11.5c-10.1,0-16.4-2.3-16.4-11.5V24.1h9v26c0,3.6,2,4.9,7.5,4.9
		c5.5,0,7.5-1.2,7.5-4.9V24.1z"/>
	<path d="M577.5,24.1v7.8h-19.7v6.9h14.1v7.6h-14.1v8.4h19.7v7.8H549V24.1H577.5z"/>
	<path class="st4" d="M174.8,98.1h-13.2c0.1,3.4,1.6,4,4.7,4c1.5,0,4.3-0.3,5.9-0.7l1,4.9c-2.1,0.7-5.3,1.2-7.7,1.2
		c-6,0-10.5-2.6-10.5-11.4c0-8.6,3.9-11.1,10.1-11.1C172.1,85,175.4,87.1,174.8,98.1z M161.6,93.4h7.1c-0.1-3-0.9-3.6-3.4-3.6
		C162.7,89.8,162,90.7,161.6,93.4z"/>
	<path class="st4" d="M188.1,106.9h-6.4v-20c2.8-1,7-1.9,10.8-1.9c5.9,0,8.8,2.5,8.8,10.1v11.8h-6.4V95.6c0-3.9-0.6-4.9-3.8-4.9
		c-1,0-2,0.1-3,0.4V106.9z"/>
	<path class="st4" d="M230,106.9h-6.7V77.8h6.7v10.6H241V77.8h6.7v29.1H241V94.6H230V106.9z"/>
	<path class="st4" d="M275,105.8c-2.9,1-7,1.7-10.1,1.7c-7.1,0-9.1-1.5-9.1-7.1c0-6,3.3-7,8.3-7c1.6,0,3.2,0.2,4.8,0.5
		c0-3-0.7-3.8-4.8-3.8c-2.5,0-4.8,0.5-6.6,1l-1-5.1c2.5-0.6,6-1.1,9.2-1.1c6.4,0,9.4,2,9.4,8.3V105.8z M268.9,98.1
		c-1-0.3-2.2-0.3-3.5-0.3c-2.3,0-3.1,0.2-3.1,2.4c0,2.2,0.5,2.5,3,2.5c1.2,0,2.5-0.2,3.5-0.6V98.1z"/>
	<path class="st4" d="M296,85.5h6.3v20c-2.7,1-7,1.9-10.8,1.9c-5.9,0-8.8-2.5-8.8-10.1V85.5h6.3v11.3c0,3.8,0.7,4.9,3.8,4.9
		c1,0,2-0.1,3.1-0.4V85.5z"/>
	<path class="st4" d="M318,91.1v8.4c0,1.8,0.9,2.6,2.9,2.6c1.3,0,2.4-0.2,3.4-0.5l1,4.9c-1.6,0.6-4.1,1-6.4,1
		c-4.6,0-7.3-1.4-7.3-7.8v-8.6h-3.5v-5.5h3.5v-3.2l6.4-2.6v5.8h6.7v5.5H318z"/>
	<path class="st4" d="M339,90c-2,0-3,0.2-3,1.8c0,1.1,0.6,1.4,3.9,1.8c5,0.6,7.2,2.1,7.2,6.5c0,5.8-4.2,7.3-9.6,7.3
		c-2.3,0-5.6-0.5-7.6-1.2l1.3-4.8c1.6,0.5,4,0.9,6,0.9c2.5,0,3.7-0.2,3.7-1.9c0-1.2-0.7-1.6-4.3-2c-4.5-0.4-6.8-1.7-6.8-6.3
		c0-5.8,4.1-7.3,9.5-7.3c2.3,0,5.3,0.5,7.3,1.2l-1.3,4.8C343.6,90.4,341.2,90,339,90z"/>
	<path class="st4" d="M352.2,92h11v6.1h-11V92z"/>
	<path class="st4" d="M382.7,85.9v-9.1h6.4V106c-2.3,0.9-6.3,1.5-9.7,1.5c-7.3,0-10.5-2.6-10.5-11.3c0-8.6,3.8-11.2,9.1-11.2
		C380,85,381.5,85.4,382.7,85.9z M382.7,101.6v-9.8c0-0.9-1.5-1.6-3.3-1.6c-3,0-4,1.3-4,5.9c0,5.2,1,6,4,6
		C380.5,102.1,381.9,101.9,382.7,101.6z"/>
	<path class="st4" d="M416.2,98.1H403c0.1,3.4,1.6,4,4.7,4c1.5,0,4.3-0.3,5.9-0.7l1,4.9c-2.1,0.7-5.3,1.2-7.7,1.2
		c-6,0-10.5-2.6-10.5-11.4c0-8.6,3.9-11.1,10.1-11.1C413.6,85,416.9,87.1,416.2,98.1z M403.1,93.4h7.1c-0.1-3-0.9-3.6-3.4-3.6
		C404.1,89.8,403.4,90.7,403.1,93.4z"/>
	<path class="st4" d="M421.5,92h11v6.1h-11V92z"/>
	<path class="st4" d="M460.9,77.8v5.9h-14.5v6.8h10.7v5.8h-10.7v10.7h-6.7V77.8H460.9z"/>
	<path class="st4" d="M479.2,85.1v6c-0.8-0.3-2-0.3-3-0.3c-2.3,0-4.3,0.8-4.3,2.2v14h-6.4V85.5h6.4v1.7c0.7-1.3,2.1-2.3,5.2-2.3
		C477.7,85,478.4,85,479.2,85.1z"/>
	<path class="st4" d="M503.1,105.8c-2.9,1-7,1.7-10.1,1.7c-7,0-9.1-1.5-9.1-7.1c0-6,3.3-7,8.3-7c1.6,0,3.2,0.2,4.8,0.5
		c0-3-0.7-3.8-4.8-3.8c-2.5,0-4.8,0.5-6.6,1l-1-5.1c2.5-0.6,6-1.1,9.2-1.1c6.4,0,9.4,2,9.4,8.3V105.8z M497,98.1
		c-1-0.3-2.2-0.3-3.5-0.3c-2.3,0-3.1,0.2-3.1,2.4c0,2.2,0.5,2.5,3,2.5c1.2,0,2.5-0.2,3.5-0.6V98.1z"/>
	<path class="st4" d="M517.5,106.9h-6.4v-20c2.8-1,7-1.9,10.8-1.9c5.9,0,8.8,2.5,8.8,10.1v11.8h-6.4V95.6c0-3.9-0.6-4.9-3.8-4.9
		c-1,0-2,0.1-3,0.4V106.9z"/>
	<path class="st4" d="M555.2,106.4c-1.7,0.7-4.6,1.1-6.7,1.1c-6.4,0-10.6-2.6-10.6-11.4c0-8.7,4.3-11.1,10.6-11.1
		c2.2,0,5,0.3,6.7,0.9l-1.3,5.4c-1.2-0.5-3.1-0.9-4.8-0.9c-3.1,0-4.7,0.5-4.7,5.8c0,5,1.6,5.8,4.7,5.8c1.8,0,3.6-0.5,4.8-1
		L555.2,106.4z"/>
	<path class="st4" d="M580,98.1h-13.2c0.1,3.4,1.6,4,4.7,4c1.5,0,4.3-0.3,5.9-0.7l1,4.9c-2.1,0.7-5.3,1.2-7.7,1.2
		c-6,0-10.5-2.6-10.5-11.4c0-8.6,3.9-11.1,10.1-11.1C577.3,85,580.6,87.1,580,98.1z M566.8,93.4h7.1c-0.1-3-0.9-3.6-3.4-3.6
		C567.9,89.8,567.2,90.7,566.8,93.4z"/>
</g>
</svg>
